<svg width="20" height="22" viewBox="0 0 20 22" fill="none" xmlns="http://www.w3.org/2000/svg">
<g id="Document  Align Left 3">
<g id="Vector">
<path d="M5.25 9C5.25 8.58579 5.58579 8.25 6 8.25H9C9.41421 8.25 9.75 8.58579 9.75 9C9.75 9.41421 9.41421 9.75 9 9.75H6C5.58579 9.75 5.25 9.41421 5.25 9Z" fill="#181818"/>
<path d="M5.25 13C5.25 12.5858 5.58579 12.25 6 12.25H14C14.4142 12.25 14.75 12.5858 14.75 13C14.75 13.4142 14.4142 13.75 14 13.75H6C5.58579 13.75 5.25 13.4142 5.25 13Z" fill="#181818"/>
<path d="M5.25 17C5.25 16.5858 5.58579 16.25 6 16.25H14C14.4142 16.25 14.75 16.5858 14.75 17C14.75 17.4142 14.4142 17.75 14 17.75H6C5.58579 17.75 5.25 17.4142 5.25 17Z" fill="#181818"/>
<path fill-rule="evenodd" clip-rule="evenodd" d="M14.0324 0.333724C15.107 0.418172 16.0049 0.591725 16.7782 0.981678C16.9892 1.08809 17.1892 1.20967 17.3798 1.34815C17.8679 1.70281 18.2972 2.13209 18.6518 2.62023C19.2377 3.42656 19.5 4.37094 19.6263 5.53648C19.75 6.67861 19.75 8.1182 19.75 9.95473V12.0453C19.75 13.8818 19.75 15.3214 19.6263 16.4635C19.5 17.6291 19.2377 18.5734 18.6518 19.3798C18.2972 19.8679 17.8679 20.2972 17.3798 20.6518C16.5734 21.2377 15.6291 21.5 14.4635 21.6263C13.3214 21.75 11.8818 21.75 10.0453 21.75H9.95473C8.1182 21.75 6.67861 21.75 5.53648 21.6263C4.37094 21.5 3.42656 21.2377 2.62024 20.6518C2.13209 20.2972 1.70281 19.8679 1.34815 19.3798C0.762324 18.5734 0.500006 17.6291 0.373728 16.4635C0.249985 15.3214 0.249992 13.8818 0.25 12.0452V9.95475C0.249992 8.11821 0.249985 6.67861 0.373728 5.53648C0.500006 4.37094 0.762324 3.42656 1.34815 2.62023C1.70281 2.13209 2.13209 1.70281 2.62024 1.34815C2.98789 1.08103 3.38699 0.879231 3.82759 0.727205C4.55633 0.47576 5.39671 0.361672 6.38484 0.305723C7.36901 0.249998 8.55244 0.249999 9.97961 0.25H10.0305C11.6555 0.249997 12.9669 0.249994 14.0324 0.333724ZM13.9149 1.82911C12.9149 1.75053 11.6617 1.75 10 1.75C8.54848 1.75 7.40668 1.75027 6.46964 1.80332C6.14312 1.82181 5.8479 1.84647 5.57917 1.87856C6.41092 2.70052 7.07917 3.33457 7.67572 3.81202C8.47813 4.45425 9.08459 4.75721 9.69912 4.85454C10.1396 4.92431 10.5883 4.92431 11.0288 4.85454C11.6262 4.75993 12.2161 4.47095 12.9856 3.8649C13.5734 3.40202 14.2309 2.78324 15.0492 1.97683C14.7236 1.91158 14.3502 1.86333 13.9149 1.82911ZM16.5509 2.60065C15.5226 3.62405 14.6769 4.44231 13.9137 5.04333C13.0379 5.73301 12.2116 6.1859 11.2635 6.33608C10.6675 6.43047 10.0604 6.43047 9.46447 6.33608C8.48904 6.18158 7.64243 5.70666 6.73842 4.98311C5.92896 4.33525 5.02087 3.44359 3.8968 2.32123C3.7556 2.39247 3.62499 2.47225 3.50191 2.56168C3.14111 2.82382 2.82382 3.14111 2.56168 3.50191C2.19259 4.00992 1.97745 4.66013 1.865 5.69804C1.75103 6.74999 1.75 8.10843 1.75 10V12C1.75 13.8916 1.75103 15.25 1.865 16.302C1.97745 17.3399 2.19259 17.9901 2.56168 18.4981C2.82382 18.8589 3.14111 19.1762 3.50191 19.4383C4.00992 19.8074 4.66013 20.0225 5.69805 20.135C6.74999 20.249 8.10843 20.25 10 20.25C11.8916 20.25 13.25 20.249 14.302 20.135C15.3399 20.0225 15.9901 19.8074 16.4981 19.4383C16.8589 19.1762 17.1762 18.8589 17.4383 18.4981C17.8074 17.9901 18.0225 17.3399 18.135 16.302C18.249 15.25 18.25 13.8916 18.25 12V10C18.25 8.10843 18.249 6.74999 18.135 5.69804C18.0225 4.66013 17.8074 4.00992 17.4383 3.50191C17.189 3.15881 16.8899 2.85505 16.5509 2.60065Z" fill="#181818"/>
</g>
</g>
</svg>
