<svg width="110" height="111" viewBox="0 0 110 111" fill="none" xmlns="http://www.w3.org/2000/svg">
<path id="Subtract" fill-rule="evenodd" clip-rule="evenodd" d="M110 0H0V111H110V0ZM74.8846 86.912L66.7857 92.3197C67.4505 93.9545 71.4396 103.072 86.489 103.072C97.6925 103.072 102.143 94.404 102.143 89.0499C102.143 78.3602 95.7363 74.9648 91.3846 72.8897C90.5387 72.4863 89.5447 72.0988 88.5003 71.6917C84.5081 70.1356 79.7802 68.2926 79.7802 64.1808C79.7802 62.7155 80.6868 59.4962 85.0385 59.4962C86.8002 59.4962 89.6621 60.6595 91.3846 64.1808L99.2418 58.6473C94.9808 50.5672 86.425 50.3471 84.6456 50.3471C81.9258 50.3471 69.8984 51.7934 69.8984 64.3694C69.8984 75.7871 80.1152 79.726 82.8845 80.7936C83.1119 80.8813 83.2895 80.9497 83.4066 81.0012C83.6352 81.1017 83.9694 81.2166 84.3752 81.3561C86.8652 82.2122 92.0494 83.9946 92.0494 89.0499C92.0494 90.9049 89.6923 93.703 84.6154 93.703C79.5385 93.703 75.5192 88.9241 74.8846 86.912ZM35.9412 87.9886L27.5 93.3935C28.2559 96.3474 32.9175 103.072 44.1305 103.072C56.3261 103.072 59.0895 93.0164 58.9215 87.9886V51.5365H48.5401V87.9886C48.5401 89.8426 46.6313 93.7078 42.9021 93.7078C39.1728 93.7078 36.6027 89.9997 35.9412 87.9886Z" fill="#555151" fill-opacity="0.6"/>
</svg>
