<svg width="99" height="111" viewBox="0 0 99 111" fill="none" xmlns="http://www.w3.org/2000/svg">
<path id="Vector" d="M49.4778 111C47.9933 111 46.4866 110.604 45.1793 109.855L31.5081 101.815C29.4696 100.67 30.4667 100.273 31.1314 100.053C33.8568 99.106 34.4107 98.9077 37.3133 97.2558C37.6235 97.0796 38.0224 97.1456 38.3326 97.3439L48.8353 103.533C49.212 103.753 49.7437 103.753 50.0983 103.533L91.0233 80.0535C91.4 79.8332 91.6437 79.3927 91.6437 78.9522V31.9928C91.6437 31.5302 91.4 31.1117 91.0011 30.8694L50.0983 7.41175C49.7216 7.19149 49.212 7.19149 48.8353 7.41175L7.95457 30.8915C7.55573 31.1117 7.312 31.5522 7.312 32.0148V78.9522C7.312 79.3927 7.55573 79.8332 7.95457 80.0314L19.1663 86.4631C25.2596 89.4806 28.9821 85.9344 28.9821 82.3442V36.0015C28.9821 35.3407 29.5139 34.8341 30.1786 34.8341H35.3635C36.006 34.8341 36.56 35.3407 36.56 36.0015V82.3662C36.56 90.4277 32.1285 95.0532 24.4398 95.0532C22.0689 95.0532 20.2077 95.0532 15.0228 92.4982L4.29857 86.3529C1.63966 84.8331 0 81.9918 0 78.9302V31.9928C0 28.9532 1.63966 26.0898 4.29857 24.57L45.1793 1.09029C47.7717 -0.363429 51.2061 -0.363429 53.7764 1.09029L94.7014 24.592C97.3603 26.1118 99 28.9532 99 32.0148V78.9522C99 81.9918 97.3603 84.8331 94.7014 86.3749L53.7764 109.855C52.4691 110.604 50.9846 111 49.4778 111ZM82.5148 64.7234C82.5148 55.935 76.5322 53.6003 63.9689 51.9483C51.2504 50.2743 49.9653 49.4153 49.9653 46.4638C49.9653 44.019 51.051 40.7591 60.468 40.7591C68.8657 40.7591 71.9678 42.5652 73.2529 48.2039C73.3637 48.7325 73.8512 49.129 74.4051 49.129H79.7229C80.0553 49.129 80.3655 48.9968 80.5871 48.7545C80.8086 48.5122 80.9194 48.1819 80.8973 47.8515C80.0774 38.138 73.5853 33.6227 60.468 33.6227C48.791 33.6227 41.8335 38.5125 41.8335 46.7281C41.8335 55.6266 48.7688 58.0936 59.9584 59.1949C73.3637 60.4944 74.4051 62.4547 74.4051 65.0758C74.4051 69.6132 70.727 71.5514 62.1077 71.5514C51.2726 71.5514 48.9017 68.8422 48.1041 63.4899C48.0154 62.9173 47.528 62.4988 46.9297 62.4988H41.6341C40.9693 62.4988 40.4597 63.0274 40.4597 63.6661C40.4597 70.5162 44.2043 78.6879 62.1298 78.6879C75.0698 78.6658 82.5148 73.5778 82.5148 64.7234Z" fill="#555151" fill-opacity="0.6"/>
</svg>
